<?xml version="1.0" encoding="utf-8" standalone="no"?>
<!DOCTYPE svg PUBLIC "-//W3C//DTD SVG 1.1//EN"
  "http://www.w3.org/Graphics/SVG/1.1/DTD/svg11.dtd">
<svg xmlns:xlink="http://www.w3.org/1999/xlink" width="576pt" height="432pt" viewBox="0 0 576 432" xmlns="http://www.w3.org/2000/svg" version="1.1">
 <metadata>
  <rdf:RDF xmlns:dc="http://purl.org/dc/elements/1.1/" xmlns:cc="http://creativecommons.org/ns#" xmlns:rdf="http://www.w3.org/1999/02/22-rdf-syntax-ns#">
   <cc:Work>
    <dc:type rdf:resource="http://purl.org/dc/dcmitype/StillImage"/>
    <dc:date>2025-04-13T19:04:36.700204</dc:date>
    <dc:format>image/svg+xml</dc:format>
    <dc:creator>
     <cc:Agent>
      <dc:title>Matplotlib v3.10.1, https://matplotlib.org/</dc:title>
     </cc:Agent>
    </dc:creator>
   </cc:Work>
  </rdf:RDF>
 </metadata>
 <defs>
  <style type="text/css">*{stroke-linejoin: round; stroke-linecap: butt}</style>
 </defs>
 <g id="figure_1">
  <g id="patch_1">
   <path d="M 0 432 
L 576 432 
L 576 0 
L 0 0 
z
" style="fill: #ffffff"/>
  </g>
  <g id="axes_1">
   <g id="patch_2">
    <path d="M 94.513347 375.352 
L 496.76024 375.352 
L 496.76024 10.8 
L 94.513347 10.8 
z
" style="fill: #e5e5e5"/>
   </g>
   <g id="matplotlib.axis_1">
    <g id="xtick_1">
     <g id="line2d_1">
      <path d="M 140.498745 375.352 
L 140.498745 10.8 
" clip-path="url(#pb153f67617)" style="fill: none; stroke: #ffffff; stroke-width: 0.8; stroke-linecap: square"/>
     </g>
     <g id="line2d_2">
      <defs>
       <path id="mb94e00fcf3" d="M 0 0 
L 0 3.5 
" style="stroke: #555555; stroke-width: 0.8"/>
      </defs>
      <g>
       <use xlink:href="#mb94e00fcf3" x="140.498745" y="375.352" style="fill: #555555; stroke: #555555; stroke-width: 0.8"/>
      </g>
     </g>
     <g id="text_1">
      <!-- −2 -->
      <g style="fill: #555555" transform="translate(127.230776 396.029187) scale(0.18 -0.18)">
       <defs>
        <path id="DejaVuSans-2212" d="M 678 2272 
L 4684 2272 
L 4684 1741 
L 678 1741 
L 678 2272 
z
" transform="scale(0.015625)"/>
        <path id="DejaVuSans-32" d="M 1228 531 
L 3431 531 
L 3431 0 
L 469 0 
L 469 531 
Q 828 903 1448 1529 
Q 2069 2156 2228 2338 
Q 2531 2678 2651 2914 
Q 2772 3150 2772 3378 
Q 2772 3750 2511 3984 
Q 2250 4219 1831 4219 
Q 1534 4219 1204 4116 
Q 875 4013 500 3803 
L 500 4441 
Q 881 4594 1212 4672 
Q 1544 4750 1819 4750 
Q 2544 4750 2975 4387 
Q 3406 4025 3406 3419 
Q 3406 3131 3298 2873 
Q 3191 2616 2906 2266 
Q 2828 2175 2409 1742 
Q 1991 1309 1228 531 
z
" transform="scale(0.015625)"/>
       </defs>
       <use xlink:href="#DejaVuSans-2212"/>
       <use xlink:href="#DejaVuSans-32" transform="translate(83.789062 0)"/>
      </g>
     </g>
    </g>
    <g id="xtick_2">
     <g id="line2d_3">
      <path d="M 211.029803 375.352 
L 211.029803 10.8 
" clip-path="url(#pb153f67617)" style="fill: none; stroke: #ffffff; stroke-width: 0.8; stroke-linecap: square"/>
     </g>
     <g id="line2d_4">
      <g>
       <use xlink:href="#mb94e00fcf3" x="211.029803" y="375.352" style="fill: #555555; stroke: #555555; stroke-width: 0.8"/>
      </g>
     </g>
     <g id="text_2">
      <!-- −1 -->
      <g style="fill: #555555" transform="translate(197.761834 396.029187) scale(0.18 -0.18)">
       <defs>
        <path id="DejaVuSans-31" d="M 794 531 
L 1825 531 
L 1825 4091 
L 703 3866 
L 703 4441 
L 1819 4666 
L 2450 4666 
L 2450 531 
L 3481 531 
L 3481 0 
L 794 0 
L 794 531 
z
" transform="scale(0.015625)"/>
       </defs>
       <use xlink:href="#DejaVuSans-2212"/>
       <use xlink:href="#DejaVuSans-31" transform="translate(83.789062 0)"/>
      </g>
     </g>
    </g>
    <g id="xtick_3">
     <g id="line2d_5">
      <path d="M 281.560861 375.352 
L 281.560861 10.8 
" clip-path="url(#pb153f67617)" style="fill: none; stroke: #ffffff; stroke-width: 0.8; stroke-linecap: square"/>
     </g>
     <g id="line2d_6">
      <g>
       <use xlink:href="#mb94e00fcf3" x="281.560861" y="375.352" style="fill: #555555; stroke: #555555; stroke-width: 0.8"/>
      </g>
     </g>
     <g id="text_3">
      <!-- 0 -->
      <g style="fill: #555555" transform="translate(275.834611 396.029187) scale(0.18 -0.18)">
       <defs>
        <path id="DejaVuSans-30" d="M 2034 4250 
Q 1547 4250 1301 3770 
Q 1056 3291 1056 2328 
Q 1056 1369 1301 889 
Q 1547 409 2034 409 
Q 2525 409 2770 889 
Q 3016 1369 3016 2328 
Q 3016 3291 2770 3770 
Q 2525 4250 2034 4250 
z
M 2034 4750 
Q 2819 4750 3233 4129 
Q 3647 3509 3647 2328 
Q 3647 1150 3233 529 
Q 2819 -91 2034 -91 
Q 1250 -91 836 529 
Q 422 1150 422 2328 
Q 422 3509 836 4129 
Q 1250 4750 2034 4750 
z
" transform="scale(0.015625)"/>
       </defs>
       <use xlink:href="#DejaVuSans-30"/>
      </g>
     </g>
    </g>
    <g id="xtick_4">
     <g id="line2d_7">
      <path d="M 352.091919 375.352 
L 352.091919 10.8 
" clip-path="url(#pb153f67617)" style="fill: none; stroke: #ffffff; stroke-width: 0.8; stroke-linecap: square"/>
     </g>
     <g id="line2d_8">
      <g>
       <use xlink:href="#mb94e00fcf3" x="352.091919" y="375.352" style="fill: #555555; stroke: #555555; stroke-width: 0.8"/>
      </g>
     </g>
     <g id="text_4">
      <!-- 1 -->
      <g style="fill: #555555" transform="translate(346.365669 396.029187) scale(0.18 -0.18)">
       <use xlink:href="#DejaVuSans-31"/>
      </g>
     </g>
    </g>
    <g id="xtick_5">
     <g id="line2d_9">
      <path d="M 422.622977 375.352 
L 422.622977 10.8 
" clip-path="url(#pb153f67617)" style="fill: none; stroke: #ffffff; stroke-width: 0.8; stroke-linecap: square"/>
     </g>
     <g id="line2d_10">
      <g>
       <use xlink:href="#mb94e00fcf3" x="422.622977" y="375.352" style="fill: #555555; stroke: #555555; stroke-width: 0.8"/>
      </g>
     </g>
     <g id="text_5">
      <!-- 2 -->
      <g style="fill: #555555" transform="translate(416.896727 396.029187) scale(0.18 -0.18)">
       <use xlink:href="#DejaVuSans-32"/>
      </g>
     </g>
    </g>
    <g id="xtick_6">
     <g id="line2d_11">
      <path d="M 493.154035 375.352 
L 493.154035 10.8 
" clip-path="url(#pb153f67617)" style="fill: none; stroke: #ffffff; stroke-width: 0.8; stroke-linecap: square"/>
     </g>
     <g id="line2d_12">
      <g>
       <use xlink:href="#mb94e00fcf3" x="493.154035" y="375.352" style="fill: #555555; stroke: #555555; stroke-width: 0.8"/>
      </g>
     </g>
     <g id="text_6">
      <!-- 3 -->
      <g style="fill: #555555" transform="translate(487.427785 396.029187) scale(0.18 -0.18)">
       <defs>
        <path id="DejaVuSans-33" d="M 2597 2516 
Q 3050 2419 3304 2112 
Q 3559 1806 3559 1356 
Q 3559 666 3084 287 
Q 2609 -91 1734 -91 
Q 1441 -91 1130 -33 
Q 819 25 488 141 
L 488 750 
Q 750 597 1062 519 
Q 1375 441 1716 441 
Q 2309 441 2620 675 
Q 2931 909 2931 1356 
Q 2931 1769 2642 2001 
Q 2353 2234 1838 2234 
L 1294 2234 
L 1294 2753 
L 1863 2753 
Q 2328 2753 2575 2939 
Q 2822 3125 2822 3475 
Q 2822 3834 2567 4026 
Q 2313 4219 1838 4219 
Q 1578 4219 1281 4162 
Q 984 4106 628 3988 
L 628 4550 
Q 988 4650 1302 4700 
Q 1616 4750 1894 4750 
Q 2613 4750 3031 4423 
Q 3450 4097 3450 3541 
Q 3450 3153 3228 2886 
Q 3006 2619 2597 2516 
z
" transform="scale(0.015625)"/>
       </defs>
       <use xlink:href="#DejaVuSans-33"/>
      </g>
     </g>
    </g>
    <g id="text_7">
     <!-- PC1 -->
     <g style="fill: #555555" transform="translate(278.199293 417.449812) scale(0.18 -0.18)">
      <defs>
       <path id="DejaVuSans-50" d="M 1259 4147 
L 1259 2394 
L 2053 2394 
Q 2494 2394 2734 2622 
Q 2975 2850 2975 3272 
Q 2975 3691 2734 3919 
Q 2494 4147 2053 4147 
L 1259 4147 
z
M 628 4666 
L 2053 4666 
Q 2838 4666 3239 4311 
Q 3641 3956 3641 3272 
Q 3641 2581 3239 2228 
Q 2838 1875 2053 1875 
L 1259 1875 
L 1259 0 
L 628 0 
L 628 4666 
z
" transform="scale(0.015625)"/>
       <path id="DejaVuSans-43" d="M 4122 4306 
L 4122 3641 
Q 3803 3938 3442 4084 
Q 3081 4231 2675 4231 
Q 1875 4231 1450 3742 
Q 1025 3253 1025 2328 
Q 1025 1406 1450 917 
Q 1875 428 2675 428 
Q 3081 428 3442 575 
Q 3803 722 4122 1019 
L 4122 359 
Q 3791 134 3420 21 
Q 3050 -91 2638 -91 
Q 1578 -91 968 557 
Q 359 1206 359 2328 
Q 359 3453 968 4101 
Q 1578 4750 2638 4750 
Q 3056 4750 3426 4639 
Q 3797 4528 4122 4306 
z
" transform="scale(0.015625)"/>
      </defs>
      <use xlink:href="#DejaVuSans-50"/>
      <use xlink:href="#DejaVuSans-43" transform="translate(60.302734 0)"/>
      <use xlink:href="#DejaVuSans-31" transform="translate(130.126953 0)"/>
     </g>
    </g>
   </g>
   <g id="matplotlib.axis_2">
    <g id="ytick_1">
     <g id="line2d_13">
      <path d="M 94.513347 357.99624 
L 496.76024 357.99624 
" clip-path="url(#pb153f67617)" style="fill: none; stroke: #ffffff; stroke-width: 0.8; stroke-linecap: square"/>
     </g>
     <g id="line2d_14">
      <defs>
       <path id="m5356a4b067" d="M 0 0 
L -3.5 0 
" style="stroke: #555555; stroke-width: 0.8"/>
      </defs>
      <g>
       <use xlink:href="#m5356a4b067" x="94.513347" y="357.99624" style="fill: #555555; stroke: #555555; stroke-width: 0.8"/>
      </g>
     </g>
     <g id="text_8">
      <!-- −2 -->
      <g style="fill: #555555" transform="translate(60.977409 364.834834) scale(0.18 -0.18)">
       <use xlink:href="#DejaVuSans-2212"/>
       <use xlink:href="#DejaVuSans-32" transform="translate(83.789062 0)"/>
      </g>
     </g>
    </g>
    <g id="ytick_2">
     <g id="line2d_15">
      <path d="M 94.513347 287.465182 
L 496.76024 287.465182 
" clip-path="url(#pb153f67617)" style="fill: none; stroke: #ffffff; stroke-width: 0.8; stroke-linecap: square"/>
     </g>
     <g id="line2d_16">
      <g>
       <use xlink:href="#m5356a4b067" x="94.513347" y="287.465182" style="fill: #555555; stroke: #555555; stroke-width: 0.8"/>
      </g>
     </g>
     <g id="text_9">
      <!-- −1 -->
      <g style="fill: #555555" transform="translate(60.977409 294.303776) scale(0.18 -0.18)">
       <use xlink:href="#DejaVuSans-2212"/>
       <use xlink:href="#DejaVuSans-31" transform="translate(83.789062 0)"/>
      </g>
     </g>
    </g>
    <g id="ytick_3">
     <g id="line2d_17">
      <path d="M 94.513347 216.934124 
L 496.76024 216.934124 
" clip-path="url(#pb153f67617)" style="fill: none; stroke: #ffffff; stroke-width: 0.8; stroke-linecap: square"/>
     </g>
     <g id="line2d_18">
      <g>
       <use xlink:href="#m5356a4b067" x="94.513347" y="216.934124" style="fill: #555555; stroke: #555555; stroke-width: 0.8"/>
      </g>
     </g>
     <g id="text_10">
      <!-- 0 -->
      <g style="fill: #555555" transform="translate(76.060847 223.772718) scale(0.18 -0.18)">
       <use xlink:href="#DejaVuSans-30"/>
      </g>
     </g>
    </g>
    <g id="ytick_4">
     <g id="line2d_19">
      <path d="M 94.513347 146.403066 
L 496.76024 146.403066 
" clip-path="url(#pb153f67617)" style="fill: none; stroke: #ffffff; stroke-width: 0.8; stroke-linecap: square"/>
     </g>
     <g id="line2d_20">
      <g>
       <use xlink:href="#m5356a4b067" x="94.513347" y="146.403066" style="fill: #555555; stroke: #555555; stroke-width: 0.8"/>
      </g>
     </g>
     <g id="text_11">
      <!-- 1 -->
      <g style="fill: #555555" transform="translate(76.060847 153.24166) scale(0.18 -0.18)">
       <use xlink:href="#DejaVuSans-31"/>
      </g>
     </g>
    </g>
    <g id="ytick_5">
     <g id="line2d_21">
      <path d="M 94.513347 75.872008 
L 496.76024 75.872008 
" clip-path="url(#pb153f67617)" style="fill: none; stroke: #ffffff; stroke-width: 0.8; stroke-linecap: square"/>
     </g>
     <g id="line2d_22">
      <g>
       <use xlink:href="#m5356a4b067" x="94.513347" y="75.872008" style="fill: #555555; stroke: #555555; stroke-width: 0.8"/>
      </g>
     </g>
     <g id="text_12">
      <!-- 2 -->
      <g style="fill: #555555" transform="translate(76.060847 82.710602) scale(0.18 -0.18)">
       <use xlink:href="#DejaVuSans-32"/>
      </g>
     </g>
    </g>
    <g id="text_13">
     <!-- PC2 -->
     <g style="fill: #555555" transform="translate(53.233972 210.5135) rotate(-90) scale(0.18 -0.18)">
      <use xlink:href="#DejaVuSans-50"/>
      <use xlink:href="#DejaVuSans-43" transform="translate(60.302734 0)"/>
      <use xlink:href="#DejaVuSans-32" transform="translate(130.126953 0)"/>
     </g>
    </g>
   </g>
   <g id="PathCollection_1">
    <defs>
     <path id="mccbf3b2ea7" d="M 0 12.247449 
C 3.248061 12.247449 6.363528 10.95698 8.660254 8.660254 
C 10.95698 6.363528 12.247449 3.248061 12.247449 0 
C 12.247449 -3.248061 10.95698 -6.363528 8.660254 -8.660254 
C 6.363528 -10.95698 3.248061 -12.247449 0 -12.247449 
C -3.248061 -12.247449 -6.363528 -10.95698 -8.660254 -8.660254 
C -10.95698 -6.363528 -12.247449 -3.248061 -12.247449 0 
C -12.247449 3.248061 -10.95698 6.363528 -8.660254 8.660254 
C -6.363528 10.95698 -3.248061 12.247449 0 12.247449 
z
" style="stroke: #808080; stroke-opacity: 0.6; stroke-width: 0.5"/>
    </defs>
    <g clip-path="url(#pb153f67617)">
     <use xlink:href="#mccbf3b2ea7" x="362.147036" y="348.270992" style="fill: #808080; fill-opacity: 0.6; stroke: #808080; stroke-opacity: 0.6; stroke-width: 0.5"/>
     <use xlink:href="#mccbf3b2ea7" x="404.131752" y="299.75193" style="fill: #808080; fill-opacity: 0.6; stroke: #808080; stroke-opacity: 0.6; stroke-width: 0.5"/>
     <use xlink:href="#mccbf3b2ea7" x="425.083176" y="257.897029" style="fill: #808080; fill-opacity: 0.6; stroke: #808080; stroke-opacity: 0.6; stroke-width: 0.5"/>
     <use xlink:href="#mccbf3b2ea7" x="445.361819" y="213.276028" style="fill: #808080; fill-opacity: 0.6; stroke: #808080; stroke-opacity: 0.6; stroke-width: 0.5"/>
     <use xlink:href="#mccbf3b2ea7" x="458.372003" y="273.308322" style="fill: #808080; fill-opacity: 0.6; stroke: #808080; stroke-opacity: 0.6; stroke-width: 0.5"/>
     <use xlink:href="#mccbf3b2ea7" x="460.285896" y="278.600355" style="fill: #808080; fill-opacity: 0.6; stroke: #808080; stroke-opacity: 0.6; stroke-width: 0.5"/>
     <use xlink:href="#mccbf3b2ea7" x="478.47629" y="262.697565" style="fill: #808080; fill-opacity: 0.6; stroke: #808080; stroke-opacity: 0.6; stroke-width: 0.5"/>
     <use xlink:href="#mccbf3b2ea7" x="336.647047" y="348.962597" style="fill: #808080; fill-opacity: 0.6; stroke: #808080; stroke-opacity: 0.6; stroke-width: 0.5"/>
     <use xlink:href="#mccbf3b2ea7" x="372.481169" y="324.358965" style="fill: #808080; fill-opacity: 0.6; stroke: #808080; stroke-opacity: 0.6; stroke-width: 0.5"/>
     <use xlink:href="#mccbf3b2ea7" x="417.41187" y="263.641356" style="fill: #808080; fill-opacity: 0.6; stroke: #808080; stroke-opacity: 0.6; stroke-width: 0.5"/>
     <use xlink:href="#mccbf3b2ea7" x="419.10819" y="284.986027" style="fill: #808080; fill-opacity: 0.6; stroke: #808080; stroke-opacity: 0.6; stroke-width: 0.5"/>
     <use xlink:href="#mccbf3b2ea7" x="422.599433" y="284.52125" style="fill: #808080; fill-opacity: 0.6; stroke: #808080; stroke-opacity: 0.6; stroke-width: 0.5"/>
     <use xlink:href="#mccbf3b2ea7" x="432.742283" y="284.1477" style="fill: #808080; fill-opacity: 0.6; stroke: #808080; stroke-opacity: 0.6; stroke-width: 0.5"/>
     <use xlink:href="#mccbf3b2ea7" x="299.328489" y="358.781455" style="fill: #808080; fill-opacity: 0.6; stroke: #808080; stroke-opacity: 0.6; stroke-width: 0.5"/>
     <use xlink:href="#mccbf3b2ea7" x="327.992153" y="332.314945" style="fill: #808080; fill-opacity: 0.6; stroke: #808080; stroke-opacity: 0.6; stroke-width: 0.5"/>
     <use xlink:href="#mccbf3b2ea7" x="335.480531" y="295.675811" style="fill: #808080; fill-opacity: 0.6; stroke: #808080; stroke-opacity: 0.6; stroke-width: 0.5"/>
     <use xlink:href="#mccbf3b2ea7" x="352.045455" y="272.274668" style="fill: #808080; fill-opacity: 0.6; stroke: #808080; stroke-opacity: 0.6; stroke-width: 0.5"/>
     <use xlink:href="#mccbf3b2ea7" x="362.547771" y="253.510602" style="fill: #808080; fill-opacity: 0.6; stroke: #808080; stroke-opacity: 0.6; stroke-width: 0.5"/>
     <use xlink:href="#mccbf3b2ea7" x="372.589397" y="245.537942" style="fill: #808080; fill-opacity: 0.6; stroke: #808080; stroke-opacity: 0.6; stroke-width: 0.5"/>
     <use xlink:href="#mccbf3b2ea7" x="372.693874" y="259.68832" style="fill: #808080; fill-opacity: 0.6; stroke: #808080; stroke-opacity: 0.6; stroke-width: 0.5"/>
     <use xlink:href="#mccbf3b2ea7" x="396.792122" y="237.102349" style="fill: #808080; fill-opacity: 0.6; stroke: #808080; stroke-opacity: 0.6; stroke-width: 0.5"/>
     <use xlink:href="#mccbf3b2ea7" x="390.583504" y="266.258825" style="fill: #808080; fill-opacity: 0.6; stroke: #808080; stroke-opacity: 0.6; stroke-width: 0.5"/>
     <use xlink:href="#mccbf3b2ea7" x="391.007868" y="259.959372" style="fill: #808080; fill-opacity: 0.6; stroke: #808080; stroke-opacity: 0.6; stroke-width: 0.5"/>
     <use xlink:href="#mccbf3b2ea7" x="400.942185" y="234.407075" style="fill: #808080; fill-opacity: 0.6; stroke: #808080; stroke-opacity: 0.6; stroke-width: 0.5"/>
     <use xlink:href="#mccbf3b2ea7" x="411.154622" y="242.192134" style="fill: #808080; fill-opacity: 0.6; stroke: #808080; stroke-opacity: 0.6; stroke-width: 0.5"/>
     <use xlink:href="#mccbf3b2ea7" x="411.401332" y="248.906178" style="fill: #808080; fill-opacity: 0.6; stroke: #808080; stroke-opacity: 0.6; stroke-width: 0.5"/>
     <use xlink:href="#mccbf3b2ea7" x="414.566655" y="250.895001" style="fill: #808080; fill-opacity: 0.6; stroke: #808080; stroke-opacity: 0.6; stroke-width: 0.5"/>
     <use xlink:href="#mccbf3b2ea7" x="261.545727" y="337.447586" style="fill: #808080; fill-opacity: 0.6; stroke: #808080; stroke-opacity: 0.6; stroke-width: 0.5"/>
     <use xlink:href="#mccbf3b2ea7" x="285.507152" y="313.408305" style="fill: #808080; fill-opacity: 0.6; stroke: #808080; stroke-opacity: 0.6; stroke-width: 0.5"/>
     <use xlink:href="#mccbf3b2ea7" x="312.380231" y="239.940495" style="fill: #808080; fill-opacity: 0.6; stroke: #808080; stroke-opacity: 0.6; stroke-width: 0.5"/>
     <use xlink:href="#mccbf3b2ea7" x="327.101953" y="204.042661" style="fill: #808080; fill-opacity: 0.6; stroke: #808080; stroke-opacity: 0.6; stroke-width: 0.5"/>
     <use xlink:href="#mccbf3b2ea7" x="336.681519" y="189.952078" style="fill: #808080; fill-opacity: 0.6; stroke: #808080; stroke-opacity: 0.6; stroke-width: 0.5"/>
     <use xlink:href="#mccbf3b2ea7" x="335.251119" y="189.103653" style="fill: #808080; fill-opacity: 0.6; stroke: #808080; stroke-opacity: 0.6; stroke-width: 0.5"/>
     <use xlink:href="#mccbf3b2ea7" x="355.835349" y="218.773828" style="fill: #808080; fill-opacity: 0.6; stroke: #808080; stroke-opacity: 0.6; stroke-width: 0.5"/>
     <use xlink:href="#mccbf3b2ea7" x="345.452108" y="233.843838" style="fill: #808080; fill-opacity: 0.6; stroke: #808080; stroke-opacity: 0.6; stroke-width: 0.5"/>
     <use xlink:href="#mccbf3b2ea7" x="353.656098" y="215.886938" style="fill: #808080; fill-opacity: 0.6; stroke: #808080; stroke-opacity: 0.6; stroke-width: 0.5"/>
     <use xlink:href="#mccbf3b2ea7" x="357.017662" y="215.244265" style="fill: #808080; fill-opacity: 0.6; stroke: #808080; stroke-opacity: 0.6; stroke-width: 0.5"/>
     <use xlink:href="#mccbf3b2ea7" x="354.449853" y="218.550373" style="fill: #808080; fill-opacity: 0.6; stroke: #808080; stroke-opacity: 0.6; stroke-width: 0.5"/>
     <use xlink:href="#mccbf3b2ea7" x="357.773153" y="224.077973" style="fill: #808080; fill-opacity: 0.6; stroke: #808080; stroke-opacity: 0.6; stroke-width: 0.5"/>
     <use xlink:href="#mccbf3b2ea7" x="204.67535" y="305.696635" style="fill: #808080; fill-opacity: 0.6; stroke: #808080; stroke-opacity: 0.6; stroke-width: 0.5"/>
     <use xlink:href="#mccbf3b2ea7" x="231.506261" y="277.690947" style="fill: #808080; fill-opacity: 0.6; stroke: #808080; stroke-opacity: 0.6; stroke-width: 0.5"/>
     <use xlink:href="#mccbf3b2ea7" x="244.073146" y="239.422446" style="fill: #808080; fill-opacity: 0.6; stroke: #808080; stroke-opacity: 0.6; stroke-width: 0.5"/>
     <use xlink:href="#mccbf3b2ea7" x="235.034627" y="219.71558" style="fill: #808080; fill-opacity: 0.6; stroke: #808080; stroke-opacity: 0.6; stroke-width: 0.5"/>
     <use xlink:href="#mccbf3b2ea7" x="224.836034" y="225.338086" style="fill: #808080; fill-opacity: 0.6; stroke: #808080; stroke-opacity: 0.6; stroke-width: 0.5"/>
     <use xlink:href="#mccbf3b2ea7" x="220.530779" y="221.739335" style="fill: #808080; fill-opacity: 0.6; stroke: #808080; stroke-opacity: 0.6; stroke-width: 0.5"/>
     <use xlink:href="#mccbf3b2ea7" x="224.3652" y="223.674397" style="fill: #808080; fill-opacity: 0.6; stroke: #808080; stroke-opacity: 0.6; stroke-width: 0.5"/>
     <use xlink:href="#mccbf3b2ea7" x="204.911503" y="221.269425" style="fill: #808080; fill-opacity: 0.6; stroke: #808080; stroke-opacity: 0.6; stroke-width: 0.5"/>
     <use xlink:href="#mccbf3b2ea7" x="175.68466" y="177.950911" style="fill: #808080; fill-opacity: 0.6; stroke: #808080; stroke-opacity: 0.6; stroke-width: 0.5"/>
     <use xlink:href="#mccbf3b2ea7" x="190.070805" y="113.537593" style="fill: #808080; fill-opacity: 0.6; stroke: #808080; stroke-opacity: 0.6; stroke-width: 0.5"/>
     <use xlink:href="#mccbf3b2ea7" x="197.213882" y="77.676208" style="fill: #808080; fill-opacity: 0.6; stroke: #808080; stroke-opacity: 0.6; stroke-width: 0.5"/>
     <use xlink:href="#mccbf3b2ea7" x="206.922431" y="47.26697" style="fill: #808080; fill-opacity: 0.6; stroke: #808080; stroke-opacity: 0.6; stroke-width: 0.5"/>
     <use xlink:href="#mccbf3b2ea7" x="205.661749" y="43.017634" style="fill: #808080; fill-opacity: 0.6; stroke: #808080; stroke-opacity: 0.6; stroke-width: 0.5"/>
     <use xlink:href="#mccbf3b2ea7" x="213.077954" y="52.867841" style="fill: #808080; fill-opacity: 0.6; stroke: #808080; stroke-opacity: 0.6; stroke-width: 0.5"/>
     <use xlink:href="#mccbf3b2ea7" x="207.071765" y="96.510643" style="fill: #808080; fill-opacity: 0.6; stroke: #808080; stroke-opacity: 0.6; stroke-width: 0.5"/>
     <use xlink:href="#mccbf3b2ea7" x="200.124832" y="108.237718" style="fill: #808080; fill-opacity: 0.6; stroke: #808080; stroke-opacity: 0.6; stroke-width: 0.5"/>
     <use xlink:href="#mccbf3b2ea7" x="201.537093" y="98.140599" style="fill: #808080; fill-opacity: 0.6; stroke: #808080; stroke-opacity: 0.6; stroke-width: 0.5"/>
     <use xlink:href="#mccbf3b2ea7" x="205.214295" y="88.516969" style="fill: #808080; fill-opacity: 0.6; stroke: #808080; stroke-opacity: 0.6; stroke-width: 0.5"/>
     <use xlink:href="#mccbf3b2ea7" x="118.9755" y="82.212681" style="fill: #808080; fill-opacity: 0.6; stroke: #808080; stroke-opacity: 0.6; stroke-width: 0.5"/>
     <use xlink:href="#mccbf3b2ea7" x="112.797296" y="54.381081" style="fill: #808080; fill-opacity: 0.6; stroke: #808080; stroke-opacity: 0.6; stroke-width: 0.5"/>
    </g>
   </g>
   <g id="PathCollection_2">
    <defs>
     <path id="m17433922e0" d="M 0 12.247449 
C 3.248061 12.247449 6.363528 10.95698 8.660254 8.660254 
C 10.95698 6.363528 12.247449 3.248061 12.247449 0 
C 12.247449 -3.248061 10.95698 -6.363528 8.660254 -8.660254 
C 6.363528 -10.95698 3.248061 -12.247449 0 -12.247449 
C -3.248061 -12.247449 -6.363528 -10.95698 -8.660254 -8.660254 
C -10.95698 -6.363528 -12.247449 -3.248061 -12.247449 0 
C -12.247449 3.248061 -10.95698 6.363528 -8.660254 8.660254 
C -6.363528 10.95698 -3.248061 12.247449 0 12.247449 
z
" style="stroke: #ffb01c; stroke-opacity: 0.6; stroke-width: 0.5"/>
    </defs>
    <g clip-path="url(#pb153f67617)">
     <use xlink:href="#m17433922e0" x="398.667076" y="296.280759" style="fill: #ffb01c; fill-opacity: 0.6; stroke: #ffb01c; stroke-opacity: 0.6; stroke-width: 0.5"/>
     <use xlink:href="#m17433922e0" x="350.551582" y="243.324308" style="fill: #ffb01c; fill-opacity: 0.6; stroke: #ffb01c; stroke-opacity: 0.6; stroke-width: 0.5"/>
    </g>
   </g>
   <g id="PathCollection_3">
    <defs>
     <path id="m01a4a7cc21" d="M 0 12.247449 
C 3.248061 12.247449 6.363528 10.95698 8.660254 8.660254 
C 10.95698 6.363528 12.247449 3.248061 12.247449 0 
C 12.247449 -3.248061 10.95698 -6.363528 8.660254 -8.660254 
C 6.363528 -10.95698 3.248061 -12.247449 0 -12.247449 
C -3.248061 -12.247449 -6.363528 -10.95698 -8.660254 -8.660254 
C -10.95698 -6.363528 -12.247449 -3.248061 -12.247449 0 
C -12.247449 3.248061 -10.95698 6.363528 -8.660254 8.660254 
C -6.363528 10.95698 -3.248061 12.247449 0 12.247449 
z
" style="stroke: #0348a1; stroke-opacity: 0.6; stroke-width: 0.5"/>
    </defs>
    <g clip-path="url(#pb153f67617)">
     <use xlink:href="#m01a4a7cc21" x="380.185005" y="240.085325" style="fill: #0348a1; fill-opacity: 0.6; stroke: #0348a1; stroke-opacity: 0.6; stroke-width: 0.5"/>
     <use xlink:href="#m01a4a7cc21" x="383.465032" y="234.995714" style="fill: #0348a1; fill-opacity: 0.6; stroke: #0348a1; stroke-opacity: 0.6; stroke-width: 0.5"/>
     <use xlink:href="#m01a4a7cc21" x="387.603651" y="232.976877" style="fill: #0348a1; fill-opacity: 0.6; stroke: #0348a1; stroke-opacity: 0.6; stroke-width: 0.5"/>
     <use xlink:href="#m01a4a7cc21" x="345.585325" y="177.337345" style="fill: #0348a1; fill-opacity: 0.6; stroke: #0348a1; stroke-opacity: 0.6; stroke-width: 0.5"/>
     <use xlink:href="#m01a4a7cc21" x="349.062507" y="181.237178" style="fill: #0348a1; fill-opacity: 0.6; stroke: #0348a1; stroke-opacity: 0.6; stroke-width: 0.5"/>
     <use xlink:href="#m01a4a7cc21" x="361.944742" y="187.39551" style="fill: #0348a1; fill-opacity: 0.6; stroke: #0348a1; stroke-opacity: 0.6; stroke-width: 0.5"/>
     <use xlink:href="#m01a4a7cc21" x="210.050101" y="27.370545" style="fill: #0348a1; fill-opacity: 0.6; stroke: #0348a1; stroke-opacity: 0.6; stroke-width: 0.5"/>
     <use xlink:href="#m01a4a7cc21" x="211.693503" y="35.279055" style="fill: #0348a1; fill-opacity: 0.6; stroke: #0348a1; stroke-opacity: 0.6; stroke-width: 0.5"/>
     <use xlink:href="#m01a4a7cc21" x="215.474432" y="34.565567" style="fill: #0348a1; fill-opacity: 0.6; stroke: #0348a1; stroke-opacity: 0.6; stroke-width: 0.5"/>
    </g>
   </g>
   <g id="PathCollection_4">
    <defs>
     <path id="ma009483933" d="M 0 12.247449 
C 3.248061 12.247449 6.363528 10.95698 8.660254 8.660254 
C 10.95698 6.363528 12.247449 3.248061 12.247449 0 
C 12.247449 -3.248061 10.95698 -6.363528 8.660254 -8.660254 
C 6.363528 -10.95698 3.248061 -12.247449 0 -12.247449 
C -3.248061 -12.247449 -6.363528 -10.95698 -8.660254 -8.660254 
C -10.95698 -6.363528 -12.247449 -3.248061 -12.247449 0 
C -12.247449 3.248061 -10.95698 6.363528 -8.660254 8.660254 
C -6.363528 10.95698 -3.248061 12.247449 0 12.247449 
z
" style="stroke: #c3121e; stroke-opacity: 0.6; stroke-width: 0.5"/>
    </defs>
    <g clip-path="url(#pb153f67617)">
     <use xlink:href="#ma009483933" x="295.284672" y="273.31763" style="fill: #c3121e; fill-opacity: 0.6; stroke: #c3121e; stroke-opacity: 0.6; stroke-width: 0.5"/>
     <use xlink:href="#ma009483933" x="212.791548" y="218.906235" style="fill: #c3121e; fill-opacity: 0.6; stroke: #c3121e; stroke-opacity: 0.6; stroke-width: 0.5"/>
     <use xlink:href="#ma009483933" x="210.203183" y="192.906807" style="fill: #c3121e; fill-opacity: 0.6; stroke: #c3121e; stroke-opacity: 0.6; stroke-width: 0.5"/>
     <use xlink:href="#ma009483933" x="200.415526" y="185.34919" style="fill: #c3121e; fill-opacity: 0.6; stroke: #c3121e; stroke-opacity: 0.6; stroke-width: 0.5"/>
     <use xlink:href="#ma009483933" x="197.077008" y="185.712675" style="fill: #c3121e; fill-opacity: 0.6; stroke: #c3121e; stroke-opacity: 0.6; stroke-width: 0.5"/>
     <use xlink:href="#ma009483933" x="192.629124" y="178.07603" style="fill: #c3121e; fill-opacity: 0.6; stroke: #c3121e; stroke-opacity: 0.6; stroke-width: 0.5"/>
     <use xlink:href="#ma009483933" x="187.53708" y="169.298022" style="fill: #c3121e; fill-opacity: 0.6; stroke: #c3121e; stroke-opacity: 0.6; stroke-width: 0.5"/>
     <use xlink:href="#ma009483933" x="182.642978" y="168.295806" style="fill: #c3121e; fill-opacity: 0.6; stroke: #c3121e; stroke-opacity: 0.6; stroke-width: 0.5"/>
     <use xlink:href="#ma009483933" x="177.720784" y="150.904507" style="fill: #c3121e; fill-opacity: 0.6; stroke: #c3121e; stroke-opacity: 0.6; stroke-width: 0.5"/>
    </g>
   </g>
   <g id="patch_3">
    <path d="M 94.513347 375.352 
L 94.513347 10.8 
" style="fill: none; stroke: #ffffff; stroke-linejoin: miter; stroke-linecap: square"/>
   </g>
   <g id="patch_4">
    <path d="M 496.76024 375.352 
L 496.76024 10.8 
" style="fill: none; stroke: #ffffff; stroke-linejoin: miter; stroke-linecap: square"/>
   </g>
   <g id="patch_5">
    <path d="M 94.513347 375.352 
L 496.76024 375.352 
" style="fill: none; stroke: #ffffff; stroke-linejoin: miter; stroke-linecap: square"/>
   </g>
   <g id="patch_6">
    <path d="M 94.513347 10.8 
L 496.76024 10.8 
" style="fill: none; stroke: #ffffff; stroke-linejoin: miter; stroke-linecap: square"/>
   </g>
   <g id="text_14">
    <!-- Li -->
    <g transform="translate(354.632036 353.237867) scale(0.18 -0.18)">
     <defs>
      <path id="DejaVuSans-4c" d="M 628 4666 
L 1259 4666 
L 1259 531 
L 3531 531 
L 3531 0 
L 628 0 
L 628 4666 
z
" transform="scale(0.015625)"/>
      <path id="DejaVuSans-69" d="M 603 3500 
L 1178 3500 
L 1178 0 
L 603 0 
L 603 3500 
z
M 603 4863 
L 1178 4863 
L 1178 4134 
L 603 4134 
L 603 4863 
z
" transform="scale(0.015625)"/>
     </defs>
     <use xlink:href="#DejaVuSans-4c"/>
     <use xlink:href="#DejaVuSans-69" transform="translate(55.712891 0)"/>
    </g>
   </g>
   <g id="text_15">
    <!-- Be -->
    <g transform="translate(392.419096 304.718805) scale(0.18 -0.18)">
     <defs>
      <path id="DejaVuSans-42" d="M 1259 2228 
L 1259 519 
L 2272 519 
Q 2781 519 3026 730 
Q 3272 941 3272 1375 
Q 3272 1813 3026 2020 
Q 2781 2228 2272 2228 
L 1259 2228 
z
M 1259 4147 
L 1259 2741 
L 2194 2741 
Q 2656 2741 2882 2914 
Q 3109 3088 3109 3444 
Q 3109 3797 2882 3972 
Q 2656 4147 2194 4147 
L 1259 4147 
z
M 628 4666 
L 2241 4666 
Q 2963 4666 3353 4366 
Q 3744 4066 3744 3513 
Q 3744 3084 3544 2831 
Q 3344 2578 2956 2516 
Q 3422 2416 3680 2098 
Q 3938 1781 3938 1306 
Q 3938 681 3513 340 
Q 3088 0 2303 0 
L 628 0 
L 628 4666 
z
" transform="scale(0.015625)"/>
      <path id="DejaVuSans-65" d="M 3597 1894 
L 3597 1613 
L 953 1613 
Q 991 1019 1311 708 
Q 1631 397 2203 397 
Q 2534 397 2845 478 
Q 3156 559 3463 722 
L 3463 178 
Q 3153 47 2828 -22 
Q 2503 -91 2169 -91 
Q 1331 -91 842 396 
Q 353 884 353 1716 
Q 353 2575 817 3079 
Q 1281 3584 2069 3584 
Q 2775 3584 3186 3129 
Q 3597 2675 3597 1894 
z
M 3022 2063 
Q 3016 2534 2758 2815 
Q 2500 3097 2075 3097 
Q 1594 3097 1305 2825 
Q 1016 2553 972 2059 
L 3022 2063 
z
" transform="scale(0.015625)"/>
     </defs>
     <use xlink:href="#DejaVuSans-42"/>
     <use xlink:href="#DejaVuSans-65" transform="translate(68.603516 0)"/>
    </g>
   </g>
   <g id="text_16">
    <!-- B -->
    <g transform="translate(418.908332 262.863904) scale(0.18 -0.18)">
     <use xlink:href="#DejaVuSans-42"/>
    </g>
   </g>
   <g id="text_17">
    <!-- C -->
    <g transform="translate(439.077288 218.242903) scale(0.18 -0.18)">
     <use xlink:href="#DejaVuSans-43"/>
    </g>
   </g>
   <g id="text_18">
    <!-- N -->
    <g transform="translate(451.638878 278.275197) scale(0.18 -0.18)">
     <defs>
      <path id="DejaVuSans-4e" d="M 628 4666 
L 1478 4666 
L 3547 763 
L 3547 4666 
L 4159 4666 
L 4159 0 
L 3309 0 
L 1241 3903 
L 1241 0 
L 628 0 
L 628 4666 
z
" transform="scale(0.015625)"/>
     </defs>
     <use xlink:href="#DejaVuSans-4e"/>
    </g>
   </g>
   <g id="text_19">
    <!-- O -->
    <g transform="translate(453.201209 283.56723) scale(0.18 -0.18)">
     <defs>
      <path id="DejaVuSans-4f" d="M 2522 4238 
Q 1834 4238 1429 3725 
Q 1025 3213 1025 2328 
Q 1025 1447 1429 934 
Q 1834 422 2522 422 
Q 3209 422 3611 934 
Q 4013 1447 4013 2328 
Q 4013 3213 3611 3725 
Q 3209 4238 2522 4238 
z
M 2522 4750 
Q 3503 4750 4090 4092 
Q 4678 3434 4678 2328 
Q 4678 1225 4090 567 
Q 3503 -91 2522 -91 
Q 1538 -91 948 565 
Q 359 1222 359 2328 
Q 359 3434 948 4092 
Q 1538 4750 2522 4750 
z
" transform="scale(0.015625)"/>
     </defs>
     <use xlink:href="#DejaVuSans-4f"/>
    </g>
   </g>
   <g id="text_20">
    <!-- F -->
    <g transform="translate(473.299884 267.66444) scale(0.18 -0.18)">
     <defs>
      <path id="DejaVuSans-46" d="M 628 4666 
L 3309 4666 
L 3309 4134 
L 1259 4134 
L 1259 2759 
L 3109 2759 
L 3109 2228 
L 1259 2228 
L 1259 0 
L 628 0 
L 628 4666 
z
" transform="scale(0.015625)"/>
     </defs>
     <use xlink:href="#DejaVuSans-46"/>
    </g>
   </g>
   <g id="text_21">
    <!-- Na -->
    <g transform="translate(324.398609 353.929472) scale(0.18 -0.18)">
     <defs>
      <path id="DejaVuSans-61" d="M 2194 1759 
Q 1497 1759 1228 1600 
Q 959 1441 959 1056 
Q 959 750 1161 570 
Q 1363 391 1709 391 
Q 2188 391 2477 730 
Q 2766 1069 2766 1631 
L 2766 1759 
L 2194 1759 
z
M 3341 1997 
L 3341 0 
L 2766 0 
L 2766 531 
Q 2569 213 2275 61 
Q 1981 -91 1556 -91 
Q 1019 -91 701 211 
Q 384 513 384 1019 
Q 384 1609 779 1909 
Q 1175 2209 1959 2209 
L 2766 2209 
L 2766 2266 
Q 2766 2663 2505 2880 
Q 2244 3097 1772 3097 
Q 1472 3097 1187 3025 
Q 903 2953 641 2809 
L 641 3341 
Q 956 3463 1253 3523 
Q 1550 3584 1831 3584 
Q 2591 3584 2966 3190 
Q 3341 2797 3341 1997 
z
" transform="scale(0.015625)"/>
     </defs>
     <use xlink:href="#DejaVuSans-4e"/>
     <use xlink:href="#DejaVuSans-61" transform="translate(74.804688 0)"/>
    </g>
   </g>
   <g id="text_22">
    <!-- Mg -->
    <g transform="translate(359.002262 329.32584) scale(0.18 -0.18)">
     <defs>
      <path id="DejaVuSans-4d" d="M 628 4666 
L 1569 4666 
L 2759 1491 
L 3956 4666 
L 4897 4666 
L 4897 0 
L 4281 0 
L 4281 4097 
L 3078 897 
L 2444 897 
L 1241 4097 
L 1241 0 
L 628 0 
L 628 4666 
z
" transform="scale(0.015625)"/>
      <path id="DejaVuSans-67" d="M 2906 1791 
Q 2906 2416 2648 2759 
Q 2391 3103 1925 3103 
Q 1463 3103 1205 2759 
Q 947 2416 947 1791 
Q 947 1169 1205 825 
Q 1463 481 1925 481 
Q 2391 481 2648 825 
Q 2906 1169 2906 1791 
z
M 3481 434 
Q 3481 -459 3084 -895 
Q 2688 -1331 1869 -1331 
Q 1566 -1331 1297 -1286 
Q 1028 -1241 775 -1147 
L 775 -588 
Q 1028 -725 1275 -790 
Q 1522 -856 1778 -856 
Q 2344 -856 2625 -561 
Q 2906 -266 2906 331 
L 2906 616 
Q 2728 306 2450 153 
Q 2172 0 1784 0 
Q 1141 0 747 490 
Q 353 981 353 1791 
Q 353 2603 747 3093 
Q 1141 3584 1784 3584 
Q 2172 3584 2450 3431 
Q 2728 3278 2906 2969 
L 2906 3500 
L 3481 3500 
L 3481 434 
z
" transform="scale(0.015625)"/>
     </defs>
     <use xlink:href="#DejaVuSans-4d"/>
     <use xlink:href="#DejaVuSans-67" transform="translate(86.279297 0)"/>
    </g>
   </g>
   <g id="text_23">
    <!-- Si -->
    <g transform="translate(409.197964 268.608231) scale(0.18 -0.18)">
     <defs>
      <path id="DejaVuSans-53" d="M 3425 4513 
L 3425 3897 
Q 3066 4069 2747 4153 
Q 2428 4238 2131 4238 
Q 1616 4238 1336 4038 
Q 1056 3838 1056 3469 
Q 1056 3159 1242 3001 
Q 1428 2844 1947 2747 
L 2328 2669 
Q 3034 2534 3370 2195 
Q 3706 1856 3706 1288 
Q 3706 609 3251 259 
Q 2797 -91 1919 -91 
Q 1588 -91 1214 -16 
Q 841 59 441 206 
L 441 856 
Q 825 641 1194 531 
Q 1563 422 1919 422 
Q 2459 422 2753 634 
Q 3047 847 3047 1241 
Q 3047 1584 2836 1778 
Q 2625 1972 2144 2069 
L 1759 2144 
Q 1053 2284 737 2584 
Q 422 2884 422 3419 
Q 422 4038 858 4394 
Q 1294 4750 2059 4750 
Q 2388 4750 2728 4690 
Q 3069 4631 3425 4513 
z
" transform="scale(0.015625)"/>
     </defs>
     <use xlink:href="#DejaVuSans-53"/>
     <use xlink:href="#DejaVuSans-69" transform="translate(63.476562 0)"/>
    </g>
   </g>
   <g id="text_24">
    <!-- P -->
    <g transform="translate(413.681471 289.952902) scale(0.18 -0.18)">
     <use xlink:href="#DejaVuSans-50"/>
    </g>
   </g>
   <g id="text_25">
    <!-- S -->
    <g transform="translate(416.885839 289.488125) scale(0.18 -0.18)">
     <use xlink:href="#DejaVuSans-53"/>
    </g>
   </g>
   <g id="text_26">
    <!-- Cl -->
    <g transform="translate(423.957439 289.114575) scale(0.18 -0.18)">
     <defs>
      <path id="DejaVuSans-6c" d="M 603 4863 
L 1178 4863 
L 1178 0 
L 603 0 
L 603 4863 
z
" transform="scale(0.015625)"/>
     </defs>
     <use xlink:href="#DejaVuSans-43"/>
     <use xlink:href="#DejaVuSans-6c" transform="translate(69.824219 0)"/>
    </g>
   </g>
   <g id="text_27">
    <!-- K -->
    <g transform="translate(293.426458 363.74833) scale(0.18 -0.18)">
     <defs>
      <path id="DejaVuSans-4b" d="M 628 4666 
L 1259 4666 
L 1259 2694 
L 3353 4666 
L 4166 4666 
L 1850 2491 
L 4331 0 
L 3500 0 
L 1259 2247 
L 1259 0 
L 628 0 
L 628 4666 
z
" transform="scale(0.015625)"/>
     </defs>
     <use xlink:href="#DejaVuSans-4b"/>
    </g>
   </g>
   <g id="text_28">
    <!-- Ca -->
    <g transform="translate(316.192309 337.28182) scale(0.18 -0.18)">
     <use xlink:href="#DejaVuSans-43"/>
     <use xlink:href="#DejaVuSans-61" transform="translate(69.824219 0)"/>
    </g>
   </g>
   <g id="text_29">
    <!-- Sc -->
    <g transform="translate(324.818343 300.642686) scale(0.18 -0.18)">
     <defs>
      <path id="DejaVuSans-63" d="M 3122 3366 
L 3122 2828 
Q 2878 2963 2633 3030 
Q 2388 3097 2138 3097 
Q 1578 3097 1268 2742 
Q 959 2388 959 1747 
Q 959 1106 1268 751 
Q 1578 397 2138 397 
Q 2388 397 2633 464 
Q 2878 531 3122 666 
L 3122 134 
Q 2881 22 2623 -34 
Q 2366 -91 2075 -91 
Q 1284 -91 818 406 
Q 353 903 353 1747 
Q 353 2603 823 3093 
Q 1294 3584 2113 3584 
Q 2378 3584 2631 3529 
Q 2884 3475 3122 3366 
z
" transform="scale(0.015625)"/>
     </defs>
     <use xlink:href="#DejaVuSans-53"/>
     <use xlink:href="#DejaVuSans-63" transform="translate(63.476562 0)"/>
    </g>
   </g>
   <g id="text_30">
    <!-- Ti -->
    <g transform="translate(344.329361 277.241543) scale(0.18 -0.18)">
     <defs>
      <path id="DejaVuSans-54" d="M -19 4666 
L 3928 4666 
L 3928 4134 
L 2272 4134 
L 2272 0 
L 1638 0 
L 1638 4134 
L -19 4134 
L -19 4666 
z
" transform="scale(0.015625)"/>
     </defs>
     <use xlink:href="#DejaVuSans-54"/>
     <use xlink:href="#DejaVuSans-69" transform="translate(57.958984 0)"/>
    </g>
   </g>
   <g id="text_31">
    <!-- V -->
    <g transform="translate(356.391209 258.477477) scale(0.18 -0.18)">
     <defs>
      <path id="DejaVuSans-56" d="M 1831 0 
L 50 4666 
L 709 4666 
L 2188 738 
L 3669 4666 
L 4325 4666 
L 2547 0 
L 1831 0 
z
" transform="scale(0.015625)"/>
     </defs>
     <use xlink:href="#DejaVuSans-56"/>
    </g>
   </g>
   <g id="text_32">
    <!-- Cr -->
    <g transform="translate(362.605022 250.504817) scale(0.18 -0.18)">
     <defs>
      <path id="DejaVuSans-72" d="M 2631 2963 
Q 2534 3019 2420 3045 
Q 2306 3072 2169 3072 
Q 1681 3072 1420 2755 
Q 1159 2438 1159 1844 
L 1159 0 
L 581 0 
L 581 3500 
L 1159 3500 
L 1159 2956 
Q 1341 3275 1631 3429 
Q 1922 3584 2338 3584 
Q 2397 3584 2469 3576 
Q 2541 3569 2628 3553 
L 2631 2963 
z
" transform="scale(0.015625)"/>
     </defs>
     <use xlink:href="#DejaVuSans-43"/>
     <use xlink:href="#DejaVuSans-72" transform="translate(69.824219 0)"/>
    </g>
   </g>
   <g id="text_33">
    <!-- Mn -->
    <g transform="translate(359.224811 264.655195) scale(0.18 -0.18)">
     <defs>
      <path id="DejaVuSans-6e" d="M 3513 2113 
L 3513 0 
L 2938 0 
L 2938 2094 
Q 2938 2591 2744 2837 
Q 2550 3084 2163 3084 
Q 1697 3084 1428 2787 
Q 1159 2491 1159 1978 
L 1159 0 
L 581 0 
L 581 3500 
L 1159 3500 
L 1159 2956 
Q 1366 3272 1645 3428 
Q 1925 3584 2291 3584 
Q 2894 3584 3203 3211 
Q 3513 2838 3513 2113 
z
" transform="scale(0.015625)"/>
     </defs>
     <use xlink:href="#DejaVuSans-4d"/>
     <use xlink:href="#DejaVuSans-6e" transform="translate(86.279297 0)"/>
    </g>
   </g>
   <g id="text_34">
    <!-- Cu -->
    <g transform="translate(384.803841 242.069224) scale(0.18 -0.18)">
     <defs>
      <path id="DejaVuSans-75" d="M 544 1381 
L 544 3500 
L 1119 3500 
L 1119 1403 
Q 1119 906 1312 657 
Q 1506 409 1894 409 
Q 2359 409 2629 706 
Q 2900 1003 2900 1516 
L 2900 3500 
L 3475 3500 
L 3475 0 
L 2900 0 
L 2900 538 
Q 2691 219 2414 64 
Q 2138 -91 1772 -91 
Q 1169 -91 856 284 
Q 544 659 544 1381 
z
M 1991 3584 
L 1991 3584 
z
" transform="scale(0.015625)"/>
     </defs>
     <use xlink:href="#DejaVuSans-43"/>
     <use xlink:href="#DejaVuSans-75" transform="translate(69.824219 0)"/>
    </g>
   </g>
   <g id="text_35">
    <!-- Zn -->
    <g transform="translate(378.714754 271.2257) scale(0.18 -0.18)">
     <defs>
      <path id="DejaVuSans-5a" d="M 359 4666 
L 4025 4666 
L 4025 4184 
L 1075 531 
L 4097 531 
L 4097 0 
L 288 0 
L 288 481 
L 3238 4134 
L 359 4134 
L 359 4666 
z
" transform="scale(0.015625)"/>
     </defs>
     <use xlink:href="#DejaVuSans-5a"/>
     <use xlink:href="#DejaVuSans-6e" transform="translate(68.505859 0)"/>
    </g>
   </g>
   <g id="text_36">
    <!-- Ga -->
    <g transform="translate(378.518962 264.926247) scale(0.18 -0.18)">
     <defs>
      <path id="DejaVuSans-47" d="M 3809 666 
L 3809 1919 
L 2778 1919 
L 2778 2438 
L 4434 2438 
L 4434 434 
Q 4069 175 3628 42 
Q 3188 -91 2688 -91 
Q 1594 -91 976 548 
Q 359 1188 359 2328 
Q 359 3472 976 4111 
Q 1594 4750 2688 4750 
Q 3144 4750 3555 4637 
Q 3966 4525 4313 4306 
L 4313 3634 
Q 3963 3931 3569 4081 
Q 3175 4231 2741 4231 
Q 1884 4231 1454 3753 
Q 1025 3275 1025 2328 
Q 1025 1384 1454 906 
Q 1884 428 2741 428 
Q 3075 428 3337 486 
Q 3600 544 3809 666 
z
" transform="scale(0.015625)"/>
     </defs>
     <use xlink:href="#DejaVuSans-47"/>
     <use xlink:href="#DejaVuSans-61" transform="translate(77.490234 0)"/>
    </g>
   </g>
   <g id="text_37">
    <!-- Ge -->
    <g transform="translate(388.430779 239.37395) scale(0.18 -0.18)">
     <use xlink:href="#DejaVuSans-47"/>
     <use xlink:href="#DejaVuSans-65" transform="translate(77.490234 0)"/>
    </g>
   </g>
   <g id="text_38">
    <!-- As -->
    <g transform="translate(400.309622 247.159009) scale(0.18 -0.18)">
     <defs>
      <path id="DejaVuSans-41" d="M 2188 4044 
L 1331 1722 
L 3047 1722 
L 2188 4044 
z
M 1831 4666 
L 2547 4666 
L 4325 0 
L 3669 0 
L 3244 1197 
L 1141 1197 
L 716 0 
L 50 0 
L 1831 4666 
z
" transform="scale(0.015625)"/>
      <path id="DejaVuSans-73" d="M 2834 3397 
L 2834 2853 
Q 2591 2978 2328 3040 
Q 2066 3103 1784 3103 
Q 1356 3103 1142 2972 
Q 928 2841 928 2578 
Q 928 2378 1081 2264 
Q 1234 2150 1697 2047 
L 1894 2003 
Q 2506 1872 2764 1633 
Q 3022 1394 3022 966 
Q 3022 478 2636 193 
Q 2250 -91 1575 -91 
Q 1294 -91 989 -36 
Q 684 19 347 128 
L 347 722 
Q 666 556 975 473 
Q 1284 391 1588 391 
Q 1994 391 2212 530 
Q 2431 669 2431 922 
Q 2431 1156 2273 1281 
Q 2116 1406 1581 1522 
L 1381 1569 
Q 847 1681 609 1914 
Q 372 2147 372 2553 
Q 372 3047 722 3315 
Q 1072 3584 1716 3584 
Q 2034 3584 2315 3537 
Q 2597 3491 2834 3397 
z
" transform="scale(0.015625)"/>
     </defs>
     <use xlink:href="#DejaVuSans-41"/>
     <use xlink:href="#DejaVuSans-73" transform="translate(68.408203 0)"/>
    </g>
   </g>
   <g id="text_39">
    <!-- Se -->
    <g transform="translate(400.149926 253.873053) scale(0.18 -0.18)">
     <use xlink:href="#DejaVuSans-53"/>
     <use xlink:href="#DejaVuSans-65" transform="translate(63.476562 0)"/>
    </g>
   </g>
   <g id="text_40">
    <!-- Br -->
    <g transform="translate(404.691967 255.861876) scale(0.18 -0.18)">
     <use xlink:href="#DejaVuSans-42"/>
     <use xlink:href="#DejaVuSans-72" transform="translate(68.603516 0)"/>
    </g>
   </g>
   <g id="text_41">
    <!-- Rb -->
    <g transform="translate(249.578539 342.414461) scale(0.18 -0.18)">
     <defs>
      <path id="DejaVuSans-52" d="M 2841 2188 
Q 3044 2119 3236 1894 
Q 3428 1669 3622 1275 
L 4263 0 
L 3584 0 
L 2988 1197 
Q 2756 1666 2539 1819 
Q 2322 1972 1947 1972 
L 1259 1972 
L 1259 0 
L 628 0 
L 628 4666 
L 2053 4666 
Q 2853 4666 3247 4331 
Q 3641 3997 3641 3322 
Q 3641 2881 3436 2590 
Q 3231 2300 2841 2188 
z
M 1259 4147 
L 1259 2491 
L 2053 2491 
Q 2509 2491 2742 2702 
Q 2975 2913 2975 3322 
Q 2975 3731 2742 3939 
Q 2509 4147 2053 4147 
L 1259 4147 
z
" transform="scale(0.015625)"/>
      <path id="DejaVuSans-62" d="M 3116 1747 
Q 3116 2381 2855 2742 
Q 2594 3103 2138 3103 
Q 1681 3103 1420 2742 
Q 1159 2381 1159 1747 
Q 1159 1113 1420 752 
Q 1681 391 2138 391 
Q 2594 391 2855 752 
Q 3116 1113 3116 1747 
z
M 1159 2969 
Q 1341 3281 1617 3432 
Q 1894 3584 2278 3584 
Q 2916 3584 3314 3078 
Q 3713 2572 3713 1747 
Q 3713 922 3314 415 
Q 2916 -91 2278 -91 
Q 1894 -91 1617 61 
Q 1341 213 1159 525 
L 1159 0 
L 581 0 
L 581 4863 
L 1159 4863 
L 1159 2969 
z
" transform="scale(0.015625)"/>
     </defs>
     <use xlink:href="#DejaVuSans-52"/>
     <use xlink:href="#DejaVuSans-62" transform="translate(69.482422 0)"/>
    </g>
   </g>
   <g id="text_42">
    <!-- Sr -->
    <g transform="translate(276.093715 318.37518) scale(0.18 -0.18)">
     <use xlink:href="#DejaVuSans-53"/>
     <use xlink:href="#DejaVuSans-72" transform="translate(63.476562 0)"/>
    </g>
   </g>
   <g id="text_43">
    <!-- Zr -->
    <g transform="translate(302.515387 244.90737) scale(0.18 -0.18)">
     <use xlink:href="#DejaVuSans-5a"/>
     <use xlink:href="#DejaVuSans-72" transform="translate(68.505859 0)"/>
    </g>
   </g>
   <g id="text_44">
    <!-- Nb -->
    <g transform="translate(314.655234 209.009536) scale(0.18 -0.18)">
     <use xlink:href="#DejaVuSans-4e"/>
     <use xlink:href="#DejaVuSans-62" transform="translate(74.804688 0)"/>
    </g>
   </g>
   <g id="text_45">
    <!-- Mo -->
    <g transform="translate(323.409331 194.918953) scale(0.18 -0.18)">
     <defs>
      <path id="DejaVuSans-6f" d="M 1959 3097 
Q 1497 3097 1228 2736 
Q 959 2375 959 1747 
Q 959 1119 1226 758 
Q 1494 397 1959 397 
Q 2419 397 2687 759 
Q 2956 1122 2956 1747 
Q 2956 2369 2687 2733 
Q 2419 3097 1959 3097 
z
M 1959 3584 
Q 2709 3584 3137 3096 
Q 3566 2609 3566 1747 
Q 3566 888 3137 398 
Q 2709 -91 1959 -91 
Q 1206 -91 779 398 
Q 353 888 353 1747 
Q 353 2609 779 3096 
Q 1206 3584 1959 3584 
z
" transform="scale(0.015625)"/>
     </defs>
     <use xlink:href="#DejaVuSans-4d"/>
     <use xlink:href="#DejaVuSans-6f" transform="translate(86.279297 0)"/>
    </g>
   </g>
   <g id="text_46">
    <!-- Tc -->
    <g transform="translate(326.335494 194.070528) scale(0.18 -0.18)">
     <use xlink:href="#DejaVuSans-54"/>
     <use xlink:href="#DejaVuSans-63" transform="translate(44.083984 0)"/>
    </g>
   </g>
   <g id="text_47">
    <!-- Ag -->
    <g transform="translate(343.965192 223.740703) scale(0.18 -0.18)">
     <use xlink:href="#DejaVuSans-41"/>
     <use xlink:href="#DejaVuSans-67" transform="translate(68.408203 0)"/>
    </g>
   </g>
   <g id="text_48">
    <!-- In -->
    <g transform="translate(337.093358 238.810713) scale(0.18 -0.18)">
     <defs>
      <path id="DejaVuSans-49" d="M 628 4666 
L 1259 4666 
L 1259 0 
L 628 0 
L 628 4666 
z
" transform="scale(0.015625)"/>
     </defs>
     <use xlink:href="#DejaVuSans-49"/>
     <use xlink:href="#DejaVuSans-6e" transform="translate(29.492188 0)"/>
    </g>
   </g>
   <g id="text_49">
    <!-- Sn -->
    <g transform="translate(342.238754 220.853813) scale(0.18 -0.18)">
     <use xlink:href="#DejaVuSans-53"/>
     <use xlink:href="#DejaVuSans-6e" transform="translate(63.476562 0)"/>
    </g>
   </g>
   <g id="text_50">
    <!-- Sb -->
    <g transform="translate(345.590475 220.21114) scale(0.18 -0.18)">
     <use xlink:href="#DejaVuSans-53"/>
     <use xlink:href="#DejaVuSans-62" transform="translate(63.476562 0)"/>
    </g>
   </g>
   <g id="text_51">
    <!-- Te -->
    <g transform="translate(344.945009 223.517248) scale(0.18 -0.18)">
     <use xlink:href="#DejaVuSans-54"/>
     <use xlink:href="#DejaVuSans-65" transform="translate(44.083984 0)"/>
    </g>
   </g>
   <g id="text_52">
    <!-- I -->
    <g transform="translate(355.118153 229.044848) scale(0.18 -0.18)">
     <use xlink:href="#DejaVuSans-49"/>
    </g>
   </g>
   <g id="text_53">
    <!-- Cs -->
    <g transform="translate(193.702381 310.66351) scale(0.18 -0.18)">
     <use xlink:href="#DejaVuSans-43"/>
     <use xlink:href="#DejaVuSans-73" transform="translate(69.824219 0)"/>
    </g>
   </g>
   <g id="text_54">
    <!-- Ba -->
    <g transform="translate(219.816105 282.657822) scale(0.18 -0.18)">
     <use xlink:href="#DejaVuSans-42"/>
     <use xlink:href="#DejaVuSans-61" transform="translate(68.603516 0)"/>
    </g>
   </g>
   <g id="text_55">
    <!-- La -->
    <g transform="translate(233.543146 244.389321) scale(0.18 -0.18)">
     <use xlink:href="#DejaVuSans-4c"/>
     <use xlink:href="#DejaVuSans-61" transform="translate(55.712891 0)"/>
    </g>
   </g>
   <g id="text_56">
    <!-- Ce -->
    <g transform="translate(223.212283 224.682455) scale(0.18 -0.18)">
     <use xlink:href="#DejaVuSans-43"/>
     <use xlink:href="#DejaVuSans-65" transform="translate(69.824219 0)"/>
    </g>
   </g>
   <g id="text_57">
    <!-- Pr -->
    <g transform="translate(215.866971 230.304961) scale(0.18 -0.18)">
     <use xlink:href="#DejaVuSans-50"/>
     <use xlink:href="#DejaVuSans-72" transform="translate(58.552734 0)"/>
    </g>
   </g>
   <g id="text_58">
    <!-- Nd -->
    <g transform="translate(208.08406 226.70621) scale(0.18 -0.18)">
     <defs>
      <path id="DejaVuSans-64" d="M 2906 2969 
L 2906 4863 
L 3481 4863 
L 3481 0 
L 2906 0 
L 2906 525 
Q 2725 213 2448 61 
Q 2172 -91 1784 -91 
Q 1150 -91 751 415 
Q 353 922 353 1747 
Q 353 2572 751 3078 
Q 1150 3584 1784 3584 
Q 2172 3584 2448 3432 
Q 2725 3281 2906 2969 
z
M 947 1747 
Q 947 1113 1208 752 
Q 1469 391 1925 391 
Q 2381 391 2643 752 
Q 2906 1113 2906 1747 
Q 2906 2381 2643 2742 
Q 2381 3103 1925 3103 
Q 1469 3103 1208 2742 
Q 947 2381 947 1747 
z
" transform="scale(0.015625)"/>
     </defs>
     <use xlink:href="#DejaVuSans-4e"/>
     <use xlink:href="#DejaVuSans-64" transform="translate(74.804688 0)"/>
    </g>
   </g>
   <g id="text_59">
    <!-- Pm -->
    <g transform="translate(210.171919 228.641272) scale(0.18 -0.18)">
     <defs>
      <path id="DejaVuSans-6d" d="M 3328 2828 
Q 3544 3216 3844 3400 
Q 4144 3584 4550 3584 
Q 5097 3584 5394 3201 
Q 5691 2819 5691 2113 
L 5691 0 
L 5113 0 
L 5113 2094 
Q 5113 2597 4934 2840 
Q 4756 3084 4391 3084 
Q 3944 3084 3684 2787 
Q 3425 2491 3425 1978 
L 3425 0 
L 2847 0 
L 2847 2094 
Q 2847 2600 2669 2842 
Q 2491 3084 2119 3084 
Q 1678 3084 1418 2786 
Q 1159 2488 1159 1978 
L 1159 0 
L 581 0 
L 581 3500 
L 1159 3500 
L 1159 2956 
Q 1356 3278 1631 3431 
Q 1906 3584 2284 3584 
Q 2666 3584 2933 3390 
Q 3200 3197 3328 2828 
z
" transform="scale(0.015625)"/>
     </defs>
     <use xlink:href="#DejaVuSans-50"/>
     <use xlink:href="#DejaVuSans-6d" transform="translate(60.302734 0)"/>
    </g>
   </g>
   <g id="text_60">
    <!-- Eu -->
    <g transform="translate(193.520878 226.2363) scale(0.18 -0.18)">
     <defs>
      <path id="DejaVuSans-45" d="M 628 4666 
L 3578 4666 
L 3578 4134 
L 1259 4134 
L 1259 2753 
L 3481 2753 
L 3481 2222 
L 1259 2222 
L 1259 531 
L 3634 531 
L 3634 0 
L 628 0 
L 628 4666 
z
" transform="scale(0.015625)"/>
     </defs>
     <use xlink:href="#DejaVuSans-45"/>
     <use xlink:href="#DejaVuSans-75" transform="translate(63.183594 0)"/>
    </g>
   </g>
   <g id="text_61">
    <!-- Yb -->
    <g transform="translate(164.474035 182.917786) scale(0.18 -0.18)">
     <defs>
      <path id="DejaVuSans-59" d="M -13 4666 
L 666 4666 
L 1959 2747 
L 3244 4666 
L 3922 4666 
L 2272 2222 
L 2272 0 
L 1638 0 
L 1638 2222 
L -13 4666 
z
" transform="scale(0.015625)"/>
     </defs>
     <use xlink:href="#DejaVuSans-59"/>
     <use xlink:href="#DejaVuSans-62" transform="translate(61.083984 0)"/>
    </g>
   </g>
   <g id="text_62">
    <!-- Hf -->
    <g transform="translate(180.134242 118.504468) scale(0.18 -0.18)">
     <defs>
      <path id="DejaVuSans-48" d="M 628 4666 
L 1259 4666 
L 1259 2753 
L 3553 2753 
L 3553 4666 
L 4184 4666 
L 4184 0 
L 3553 0 
L 3553 2222 
L 1259 2222 
L 1259 0 
L 628 0 
L 628 4666 
z
" transform="scale(0.015625)"/>
      <path id="DejaVuSans-66" d="M 2375 4863 
L 2375 4384 
L 1825 4384 
Q 1516 4384 1395 4259 
Q 1275 4134 1275 3809 
L 1275 3500 
L 2222 3500 
L 2222 3053 
L 1275 3053 
L 1275 0 
L 697 0 
L 697 3053 
L 147 3053 
L 147 3500 
L 697 3500 
L 697 3744 
Q 697 4328 969 4595 
Q 1241 4863 1831 4863 
L 2375 4863 
z
" transform="scale(0.015625)"/>
     </defs>
     <use xlink:href="#DejaVuSans-48"/>
     <use xlink:href="#DejaVuSans-66" transform="translate(75.195312 0)"/>
    </g>
   </g>
   <g id="text_63">
    <!-- Ta -->
    <g transform="translate(187.686538 82.643083) scale(0.18 -0.18)">
     <use xlink:href="#DejaVuSans-54"/>
     <use xlink:href="#DejaVuSans-61" transform="translate(44.583984 0)"/>
    </g>
   </g>
   <g id="text_64">
    <!-- W -->
    <g transform="translate(198.023681 52.233845) scale(0.18 -0.18)">
     <defs>
      <path id="DejaVuSans-57" d="M 213 4666 
L 850 4666 
L 1831 722 
L 2809 4666 
L 3519 4666 
L 4500 722 
L 5478 4666 
L 6119 4666 
L 4947 0 
L 4153 0 
L 3169 4050 
L 2175 0 
L 1381 0 
L 213 4666 
z
" transform="scale(0.015625)"/>
     </defs>
     <use xlink:href="#DejaVuSans-57"/>
    </g>
   </g>
   <g id="text_65">
    <!-- Re -->
    <g transform="translate(194.275343 47.984509) scale(0.18 -0.18)">
     <use xlink:href="#DejaVuSans-52"/>
     <use xlink:href="#DejaVuSans-65" transform="translate(64.982422 0)"/>
    </g>
   </g>
   <g id="text_66">
    <!-- Au -->
    <g transform="translate(201.217642 57.834716) scale(0.18 -0.18)">
     <use xlink:href="#DejaVuSans-41"/>
     <use xlink:href="#DejaVuSans-75" transform="translate(68.408203 0)"/>
    </g>
   </g>
   <g id="text_67">
    <!-- Hg -->
    <g transform="translate(194.58989 101.477518) scale(0.18 -0.18)">
     <use xlink:href="#DejaVuSans-48"/>
     <use xlink:href="#DejaVuSans-67" transform="translate(75.195312 0)"/>
    </g>
   </g>
   <g id="text_68">
    <!-- Tl -->
    <g transform="translate(192.127488 113.204593) scale(0.18 -0.18)">
     <use xlink:href="#DejaVuSans-54"/>
     <use xlink:href="#DejaVuSans-6c" transform="translate(61.083984 0)"/>
    </g>
   </g>
   <g id="text_69">
    <!-- Pb -->
    <g transform="translate(190.39678 103.107474) scale(0.18 -0.18)">
     <use xlink:href="#DejaVuSans-50"/>
     <use xlink:href="#DejaVuSans-62" transform="translate(60.302734 0)"/>
    </g>
   </g>
   <g id="text_70">
    <!-- Bi -->
    <g transform="translate(196.539139 93.483844) scale(0.18 -0.18)">
     <use xlink:href="#DejaVuSans-42"/>
     <use xlink:href="#DejaVuSans-69" transform="translate(68.603516 0)"/>
    </g>
   </g>
   <g id="text_71">
    <!-- Th -->
    <g transform="translate(107.774719 87.179556) scale(0.18 -0.18)">
     <defs>
      <path id="DejaVuSans-68" d="M 3513 2113 
L 3513 0 
L 2938 0 
L 2938 2094 
Q 2938 2591 2744 2837 
Q 2550 3084 2163 3084 
Q 1697 3084 1428 2787 
Q 1159 2491 1159 1978 
L 1159 0 
L 581 0 
L 581 4863 
L 1159 4863 
L 1159 2956 
Q 1366 3272 1645 3428 
Q 1925 3584 2291 3584 
Q 2894 3584 3203 3211 
Q 3513 2838 3513 2113 
z
" transform="scale(0.015625)"/>
     </defs>
     <use xlink:href="#DejaVuSans-54"/>
     <use xlink:href="#DejaVuSans-68" transform="translate(61.083984 0)"/>
    </g>
   </g>
   <g id="text_72">
    <!-- U -->
    <g transform="translate(106.210421 59.347956) scale(0.18 -0.18)">
     <defs>
      <path id="DejaVuSans-55" d="M 556 4666 
L 1191 4666 
L 1191 1831 
Q 1191 1081 1462 751 
Q 1734 422 2344 422 
Q 2950 422 3222 751 
Q 3494 1081 3494 1831 
L 3494 4666 
L 4128 4666 
L 4128 1753 
Q 4128 841 3676 375 
Q 3225 -91 2344 -91 
Q 1459 -91 1007 375 
Q 556 841 556 1753 
L 556 4666 
z
" transform="scale(0.015625)"/>
     </defs>
     <use xlink:href="#DejaVuSans-55"/>
    </g>
   </g>
   <g id="text_73">
    <!-- Al -->
    <g transform="translate(390.010201 301.247634) scale(0.18 -0.18)">
     <use xlink:href="#DejaVuSans-41"/>
     <use xlink:href="#DejaVuSans-6c" transform="translate(68.408203 0)"/>
    </g>
   </g>
   <g id="text_74">
    <!-- Cd -->
    <g transform="translate(338.553457 248.291183) scale(0.18 -0.18)">
     <use xlink:href="#DejaVuSans-43"/>
     <use xlink:href="#DejaVuSans-64" transform="translate(69.824219 0)"/>
    </g>
   </g>
   <g id="text_75">
    <!-- Fe -->
    <g transform="translate(369.965786 245.0522) scale(0.18 -0.18)">
     <use xlink:href="#DejaVuSans-46"/>
     <use xlink:href="#DejaVuSans-65" transform="translate(52.019531 0)"/>
    </g>
   </g>
   <g id="text_76">
    <!-- Co -->
    <g transform="translate(371.673625 239.962589) scale(0.18 -0.18)">
     <use xlink:href="#DejaVuSans-43"/>
     <use xlink:href="#DejaVuSans-6f" transform="translate(69.824219 0)"/>
    </g>
   </g>
   <g id="text_77">
    <!-- Ni -->
    <g transform="translate(378.370213 237.943752) scale(0.18 -0.18)">
     <use xlink:href="#DejaVuSans-4e"/>
     <use xlink:href="#DejaVuSans-69" transform="translate(74.804688 0)"/>
    </g>
   </g>
   <g id="text_78">
    <!-- Ru -->
    <g transform="translate(334.032981 182.30422) scale(0.18 -0.18)">
     <use xlink:href="#DejaVuSans-52"/>
     <use xlink:href="#DejaVuSans-75" transform="translate(64.982422 0)"/>
    </g>
   </g>
   <g id="text_79">
    <!-- Rh -->
    <g transform="translate(337.105163 186.204053) scale(0.18 -0.18)">
     <use xlink:href="#DejaVuSans-52"/>
     <use xlink:href="#DejaVuSans-68" transform="translate(69.482422 0)"/>
    </g>
   </g>
   <g id="text_80">
    <!-- Pd -->
    <g transform="translate(350.804429 192.362385) scale(0.18 -0.18)">
     <use xlink:href="#DejaVuSans-50"/>
     <use xlink:href="#DejaVuSans-64" transform="translate(60.302734 0)"/>
    </g>
   </g>
   <g id="text_81">
    <!-- Os -->
    <g transform="translate(198.276976 32.33742) scale(0.18 -0.18)">
     <use xlink:href="#DejaVuSans-4f"/>
     <use xlink:href="#DejaVuSans-73" transform="translate(78.710938 0)"/>
    </g>
   </g>
   <g id="text_82">
    <!-- Ir -->
    <g transform="translate(205.338659 40.24593) scale(0.18 -0.18)">
     <use xlink:href="#DejaVuSans-49"/>
     <use xlink:href="#DejaVuSans-72" transform="translate(29.492188 0)"/>
    </g>
   </g>
   <g id="text_83">
    <!-- Pt -->
    <g transform="translate(206.519432 39.532442) scale(0.18 -0.18)">
     <defs>
      <path id="DejaVuSans-74" d="M 1172 4494 
L 1172 3500 
L 2356 3500 
L 2356 3053 
L 1172 3053 
L 1172 1153 
Q 1172 725 1289 603 
Q 1406 481 1766 481 
L 2356 481 
L 2356 0 
L 1766 0 
Q 1100 0 847 248 
Q 594 497 594 1153 
L 594 3053 
L 172 3053 
L 172 3500 
L 594 3500 
L 594 4494 
L 1172 4494 
z
" transform="scale(0.015625)"/>
     </defs>
     <use xlink:href="#DejaVuSans-50"/>
     <use xlink:href="#DejaVuSans-74" transform="translate(60.302734 0)"/>
    </g>
   </g>
   <g id="text_84">
    <!-- Y -->
    <g transform="translate(289.787641 278.284505) scale(0.18 -0.18)">
     <use xlink:href="#DejaVuSans-59"/>
    </g>
   </g>
   <g id="text_85">
    <!-- Sm -->
    <g transform="translate(198.311392 223.87311) scale(0.18 -0.18)">
     <use xlink:href="#DejaVuSans-53"/>
     <use xlink:href="#DejaVuSans-6d" transform="translate(63.476562 0)"/>
    </g>
   </g>
   <g id="text_86">
    <!-- Gd -->
    <g transform="translate(197.515996 197.873682) scale(0.18 -0.18)">
     <use xlink:href="#DejaVuSans-47"/>
     <use xlink:href="#DejaVuSans-64" transform="translate(77.490234 0)"/>
    </g>
   </g>
   <g id="text_87">
    <!-- Tb -->
    <g transform="translate(189.204901 190.316065) scale(0.18 -0.18)">
     <use xlink:href="#DejaVuSans-54"/>
     <use xlink:href="#DejaVuSans-62" transform="translate(61.083984 0)"/>
    </g>
   </g>
   <g id="text_88">
    <!-- Dy -->
    <g transform="translate(184.820133 190.67955) scale(0.18 -0.18)">
     <defs>
      <path id="DejaVuSans-44" d="M 1259 4147 
L 1259 519 
L 2022 519 
Q 2988 519 3436 956 
Q 3884 1394 3884 2338 
Q 3884 3275 3436 3711 
Q 2988 4147 2022 4147 
L 1259 4147 
z
M 628 4666 
L 1925 4666 
Q 3281 4666 3915 4102 
Q 4550 3538 4550 2338 
Q 4550 1131 3912 565 
Q 3275 0 1925 0 
L 628 0 
L 628 4666 
z
" transform="scale(0.015625)"/>
      <path id="DejaVuSans-79" d="M 2059 -325 
Q 1816 -950 1584 -1140 
Q 1353 -1331 966 -1331 
L 506 -1331 
L 506 -850 
L 844 -850 
Q 1081 -850 1212 -737 
Q 1344 -625 1503 -206 
L 1606 56 
L 191 3500 
L 800 3500 
L 1894 763 
L 2988 3500 
L 3597 3500 
L 2059 -325 
z
" transform="scale(0.015625)"/>
     </defs>
     <use xlink:href="#DejaVuSans-44"/>
     <use xlink:href="#DejaVuSans-79" transform="translate(77.001953 0)"/>
    </g>
   </g>
   <g id="text_89">
    <!-- Ho -->
    <g transform="translate(180.353968 183.042905) scale(0.18 -0.18)">
     <use xlink:href="#DejaVuSans-48"/>
     <use xlink:href="#DejaVuSans-6f" transform="translate(75.195312 0)"/>
    </g>
   </g>
   <g id="text_90">
    <!-- Er -->
    <g transform="translate(178.150361 174.264897) scale(0.18 -0.18)">
     <use xlink:href="#DejaVuSans-45"/>
     <use xlink:href="#DejaVuSans-72" transform="translate(63.183594 0)"/>
    </g>
   </g>
   <g id="text_91">
    <!-- Tm -->
    <g transform="translate(168.379384 173.262681) scale(0.18 -0.18)">
     <use xlink:href="#DejaVuSans-54"/>
     <use xlink:href="#DejaVuSans-6d" transform="translate(61.083984 0)"/>
    </g>
   </g>
   <g id="text_92">
    <!-- Lu -->
    <g transform="translate(167.159847 155.871382) scale(0.18 -0.18)">
     <use xlink:href="#DejaVuSans-4c"/>
     <use xlink:href="#DejaVuSans-75" transform="translate(53.962891 0)"/>
    </g>
   </g>
  </g>
 </g>
 <defs>
  <clipPath id="pb153f67617">
   <rect x="94.513347" y="10.8" width="402.246893" height="364.552"/>
  </clipPath>
 </defs>
</svg>
